# xmcd
#
# Track frame offsets: 
#        225
#        13631
#        34822
#        48949
#        72018
#        83378
#        97345
#        114136
#        130180
#        152128
#        167748
#        181565
#        200223
#
# Disc length: 2839 seconds
#
# Revision: 1
# Processed by: cddbd v1.5.2PL0 Copyright (c) Steve Scherf et al.
# Submitted via: ExactAudioCopy v0.99pb3
#
DISCID=9f0b140d
DTITLE=Chicago Bob And The Shadows - Just Your Fool
DYEAR=1997
DGENRE=Blues
TTITLE0=Just Your Fool
TTITLE1=Call My Landlady
TTITLE2=Mama, Talk To Your Daughter
TTITLE3=Your Time To Choose
TTITLE4=Stop What You're Doing
TTITLE5=Too Much Alcohol
TTITLE6=You Belong To Me
TTITLE7=Sloppy Drunk
TTITLE8=In My Bed All Alone
TTITLE9=Just A Feeling
TTITLE10=If You Think I've Lost You
TTITLE11=Little Rain
TTITLE12=Bogalusa Boogie
EXTD=
EXTT0=
EXTT1=
EXTT2=
EXTT3=
EXTT4=
EXTT5=
EXTT6=
EXTT7=
EXTT8=
EXTT9=
EXTT10=
EXTT11=
EXTT12=
PLAYORDER=
